<svg width="25" height="24" viewBox="0 0 25 24" fill="none" xmlns="http://www.w3.org/2000/svg">
<mask id="mask0_457_2007" style="mask-type:alpha" maskUnits="userSpaceOnUse" x="0" y="0" width="25" height="24">
<rect x="0.25" width="24" height="24" fill="#D9D9D9"/>
</mask>
<g mask="url(#mask0_457_2007)">
<path d="M12.25 21L10.8 19.7C9.11667 18.1834 7.725 16.875 6.625 15.775C5.525 14.675 4.65 13.6875 4 12.8125C3.35 11.9375 2.89583 11.1334 2.6375 10.4C2.37917 9.66669 2.25 8.91669 2.25 8.15002C2.25 6.58336 2.775 5.27502 3.825 4.22502C4.875 3.17502 6.18333 2.65002 7.75 2.65002C8.61667 2.65002 9.44167 2.83336 10.225 3.20002C11.0083 3.56669 11.6833 4.08336 12.25 4.75002C12.8167 4.08336 13.4917 3.56669 14.275 3.20002C15.0583 2.83336 15.8833 2.65002 16.75 2.65002C18.3167 2.65002 19.625 3.17502 20.675 4.22502C21.725 5.27502 22.25 6.58336 22.25 8.15002C22.25 8.91669 22.1208 9.66669 21.8625 10.4C21.6042 11.1334 21.15 11.9375 20.5 12.8125C19.85 13.6875 18.975 14.675 17.875 15.775C16.775 16.875 15.3833 18.1834 13.7 19.7L12.25 21ZM12.25 18.3C13.85 16.8667 15.1667 15.6375 16.2 14.6125C17.2333 13.5875 18.05 12.6959 18.65 11.9375C19.25 11.1792 19.6667 10.5042 19.9 9.91252C20.1333 9.32086 20.25 8.73336 20.25 8.15002C20.25 7.15002 19.9167 6.31669 19.25 5.65002C18.5833 4.98336 17.75 4.65002 16.75 4.65002C15.9667 4.65002 15.2417 4.87086 14.575 5.31252C13.9083 5.75419 13.45 6.31669 13.2 7.00002H11.3C11.05 6.31669 10.5917 5.75419 9.925 5.31252C9.25833 4.87086 8.53333 4.65002 7.75 4.65002C6.75 4.65002 5.91667 4.98336 5.25 5.65002C4.58333 6.31669 4.25 7.15002 4.25 8.15002C4.25 8.73336 4.36667 9.32086 4.6 9.91252C4.83333 10.5042 5.25 11.1792 5.85 11.9375C6.45 12.6959 7.26667 13.5875 8.3 14.6125C9.33333 15.6375 10.65 16.8667 12.25 18.3Z" fill="#272727"/>
</g>
</svg>
