<svg width="57" height="58" viewBox="0 0 57 58" fill="none" xmlns="http://www.w3.org/2000/svg">
<circle cx="28.5" cy="28.7637" r="28" stroke="#272727"/>
<path d="M23.75 16.7637H34.25C38.25 16.7637 41.5 20.0137 41.5 24.0137V34.5137C41.5 36.4365 40.7362 38.2806 39.3765 39.6402C38.0169 40.9998 36.1728 41.7637 34.25 41.7637H23.75C19.75 41.7637 16.5 38.5137 16.5 34.5137V24.0137C16.5 22.0909 17.2638 20.2468 18.6235 18.8871C19.9831 17.5275 21.8272 16.7637 23.75 16.7637ZM23.5 19.2637C22.3065 19.2637 21.1619 19.7378 20.318 20.5817C19.4741 21.4256 19 22.5702 19 23.7637V34.7637C19 37.2512 21.0125 39.2637 23.5 39.2637H34.5C35.6935 39.2637 36.8381 38.7896 37.682 37.9457C38.5259 37.1017 39 35.9571 39 34.7637V23.7637C39 21.2762 36.9875 19.2637 34.5 19.2637H23.5ZM35.5625 21.1387C35.9769 21.1387 36.3743 21.3033 36.6674 21.5963C36.9604 21.8893 37.125 22.2868 37.125 22.7012C37.125 23.1156 36.9604 23.513 36.6674 23.806C36.3743 24.0991 35.9769 24.2637 35.5625 24.2637C35.1481 24.2637 34.7507 24.0991 34.4576 23.806C34.1646 23.513 34 23.1156 34 22.7012C34 22.2868 34.1646 21.8893 34.4576 21.5963C34.7507 21.3033 35.1481 21.1387 35.5625 21.1387ZM29 23.0137C30.6576 23.0137 32.2473 23.6722 33.4194 24.8443C34.5915 26.0164 35.25 27.6061 35.25 29.2637C35.25 30.9213 34.5915 32.511 33.4194 33.6831C32.2473 34.8552 30.6576 35.5137 29 35.5137C27.3424 35.5137 25.7527 34.8552 24.5806 33.6831C23.4085 32.511 22.75 30.9213 22.75 29.2637C22.75 27.6061 23.4085 26.0164 24.5806 24.8443C25.7527 23.6722 27.3424 23.0137 29 23.0137ZM29 25.5137C28.0054 25.5137 27.0516 25.9088 26.3484 26.612C25.6451 27.3153 25.25 28.2691 25.25 29.2637C25.25 30.2582 25.6451 31.2121 26.3484 31.9153C27.0516 32.6186 28.0054 33.0137 29 33.0137C29.9946 33.0137 30.9484 32.6186 31.6517 31.9153C32.3549 31.2121 32.75 30.2582 32.75 29.2637C32.75 28.2691 32.3549 27.3153 31.6517 26.612C30.9484 25.9088 29.9946 25.5137 29 25.5137Z" fill="#272727"/>
</svg>
