<svg width="13" height="15" viewBox="0 0 13 15" fill="none" xmlns="http://www.w3.org/2000/svg">
<path d="M6.75 7.5C7.1625 7.5 7.51563 7.35313 7.80938 7.05938C8.10313 6.76563 8.25 6.4125 8.25 6C8.25 5.5875 8.10313 5.23438 7.80938 4.94063C7.51563 4.64687 7.1625 4.5 6.75 4.5C6.3375 4.5 5.98438 4.64687 5.69063 4.94063C5.39687 5.23438 5.25 5.5875 5.25 6C5.25 6.4125 5.39687 6.76563 5.69063 7.05938C5.98438 7.35313 6.3375 7.5 6.75 7.5ZM6.75 13.0125C8.275 11.6125 9.40625 10.3406 10.1438 9.19687C10.8813 8.05312 11.25 7.0375 11.25 6.15C11.25 4.7875 10.8156 3.67188 9.94687 2.80312C9.07812 1.93438 8.0125 1.5 6.75 1.5C5.4875 1.5 4.42188 1.93438 3.55312 2.80312C2.68438 3.67188 2.25 4.7875 2.25 6.15C2.25 7.0375 2.61875 8.05312 3.35625 9.19687C4.09375 10.3406 5.225 11.6125 6.75 13.0125ZM6.75 15C4.7375 13.2875 3.23438 11.6969 2.24063 10.2281C1.24688 8.75937 0.75 7.4 0.75 6.15C0.75 4.275 1.35312 2.78125 2.55938 1.66875C3.76563 0.55625 5.1625 0 6.75 0C8.3375 0 9.73438 0.55625 10.9406 1.66875C12.1469 2.78125 12.75 4.275 12.75 6.15C12.75 7.4 12.2531 8.75937 11.2594 10.2281C10.2656 11.6969 8.7625 13.2875 6.75 15Z" fill="#272727"/>
</svg>
