<svg width="562" height="157" viewBox="0 0 562 157" fill="none" xmlns="http://www.w3.org/2000/svg">
<path d="M58.71 138.17C56.88 138.21 54.87 138.19 53.07 138.22C52.18 138.24 51.41 138.25 50.76 138.25C49.72 138.25 48.76 138.24 47.89 138.22C46.13 138.19 44.48 138.21 42.71 138.17C41.82 138.15 40.89 138.14 39.92 138.14H39.24V140.02H45.88V143.34C45.88 144.9 45.84 146.27 45.77 147.42C45.7 148.54 45.54 149.51 45.31 150.29C45.09 151.02 44.75 151.62 44.29 152.08C43.82 152.55 43.17 152.95 42.39 153.26C40.43 153.94 38.54 154.4 36.76 154.62C32.69 155.12 28.3 155.13 23.98 154.03C21.61 153.42 19.44 152.39 17.53 150.96C15.62 149.54 14.05 147.64 12.84 145.3C11.64 142.97 11.03 140.01 11.03 136.49C11.03 133 11.62 130.05 12.79 127.7C13.96 125.36 15.51 123.44 17.4 122C19.3 120.55 21.46 119.5 23.8 118.86C28.27 117.64 32.83 117.58 37.23 118.6C39.29 119.07 41.24 119.79 43.03 120.72C44.82 121.65 46.45 122.84 47.89 124.26C49.32 125.67 50.52 127.34 51.45 129.22L52.33 131.08H54.31L49.86 116.12H48.09V116.8C48.09 117.27 47.99 117.61 47.78 117.81C47.54 118.05 47.22 118.19 46.82 118.26C46.35 118.34 45.84 118.34 45.3 118.26C44.73 118.18 44.18 118.06 43.67 117.89C41.93 117.36 39.9 116.9 37.65 116.53C31.52 115.52 25.58 115.9 19.91 117.38C16.32 118.32 13.06 119.68 10.23 121.43C7.37003 123.19 5.04003 125.36 3.31003 127.88C1.55003 130.44 0.650024 133.34 0.650024 136.52C0.650024 139.66 1.55003 142.54 3.33003 145.08C5.09003 147.58 7.43003 149.74 10.3 151.5C13.15 153.24 16.43 154.6 20.03 155.52C23.63 156.44 27.37 156.91 31.15 156.91C33.33 156.91 35.53 156.76 37.69 156.46C39.86 156.16 42.33 155.54 45.01 154.62C45.45 154.48 45.99 154.28 46.62 154.03C47.22 153.79 47.86 153.56 48.55 153.34C49.22 153.12 49.89 152.94 50.53 152.81C51.13 152.68 51.68 152.64 52.1 152.66C52.49 152.71 52.79 152.82 53 152.98C53.12 153.07 53.19 153.32 53.19 153.68V154.36H55.13V140.06H61.77V138.18H61.09C60.44 138.14 59.63 138.15 58.71 138.17Z" fill="#802D2D"/>
<path d="M117.23 121.25C114.3 119.54 110.92 118.22 107.2 117.31C101.05 115.81 94.5401 115.54 88.2101 116.56C85.7001 116.97 83.2701 117.57 80.9801 118.35C78.6801 119.13 76.5101 120.11 74.5201 121.24C72.5101 122.39 70.7501 123.74 69.2701 125.24C67.7801 126.76 66.6001 128.47 65.7401 130.34C64.8701 132.22 64.4401 134.29 64.4401 136.48C64.4401 138.67 64.8801 140.73 65.7401 142.6C66.6001 144.45 67.7901 146.15 69.2701 147.65C70.7501 149.14 72.5101 150.48 74.5101 151.62C76.5001 152.76 78.6701 153.73 80.9701 154.51C83.2601 155.29 85.7001 155.88 88.2301 156.27C90.7601 156.66 93.3101 156.86 95.8101 156.86C99.6501 156.86 103.48 156.41 107.19 155.53C110.9 154.65 114.28 153.33 117.22 151.62C120.18 149.9 122.61 147.76 124.44 145.26C126.3 142.72 127.24 139.76 127.24 136.48C127.24 133.2 126.3 130.23 124.44 127.65C122.62 125.14 120.19 122.98 117.23 121.25ZM111.49 150.34C107.91 153.41 102.64 154.96 95.8201 154.96C89.0401 154.96 83.7801 153.4 80.1801 150.31C76.6101 147.25 74.8001 142.61 74.8001 136.5C74.8001 130.39 76.6001 125.72 80.1501 122.61C83.7301 119.48 89.0001 117.89 95.8101 117.89C102.62 117.89 107.89 119.48 111.47 122.61C115.02 125.72 116.82 130.4 116.82 136.5C116.83 142.64 115.03 147.3 111.49 150.34Z" fill="#802D2D"/>
<path d="M180.89 141.22C179.87 143.52 178.77 145.52 177.63 147.15C176.51 148.76 175.24 150.1 173.85 151.12C172.47 152.13 170.89 152.88 169.16 153.35C167.42 153.82 165.38 154.06 163.1 154.06H148.83V118.78H155.68V116.85H155C153.16 116.85 151.36 116.87 149.59 116.9C146.07 116.97 142.35 116.97 138.8 116.9C137.02 116.86 135.22 116.85 133.42 116.85H132.74V118.78H139.65V154.06H132.74V155.99H163.09C164.67 155.99 166.23 156.01 167.77 156.04C169.31 156.07 170.67 156.13 171.87 156.2C173.04 156.27 174 156.36 174.71 156.48C174.87 156.51 174.99 156.53 175.09 156.55L175.01 156.88H177L183.13 140.81H181.06L180.89 141.22Z" fill="#802D2D"/>
<path d="M235.49 121.63C232.89 120.02 229.88 118.81 226.55 118.03C223.24 117.25 219.81 116.86 216.36 116.86H205.68C204.16 116.86 202.56 116.88 200.86 116.91C199.17 116.95 197.58 116.96 196.07 116.96C195.36 116.96 194.56 116.95 193.68 116.93C191.92 116.9 190.05 116.91 188.29 116.88C187.4 116.86 186.58 116.85 185.82 116.85H185.14V118.78H191.45V154.06H185.14V155.99H185.82C186.51 155.99 187.29 155.98 188.18 155.96C189.94 155.92 191.81 155.94 193.58 155.91C195.29 155.87 196.52 155.87 198.25 155.91C199.94 155.94 201.64 155.92 203.29 155.96C204.12 155.98 204.9 155.99 205.62 155.99H216.36C219.82 155.99 223.24 155.59 226.55 154.82C229.88 154.04 232.89 152.82 235.49 151.22C238.12 149.6 240.26 147.54 241.88 145.11C243.51 142.64 244.34 139.72 244.34 136.41C244.34 133.14 243.51 130.23 241.88 127.76C240.26 125.31 238.12 123.25 235.49 121.63ZM223.15 119.9C225.25 120.64 227.12 121.76 228.72 123.23C230.31 124.7 231.59 126.55 232.52 128.73C233.45 130.91 233.92 133.49 233.92 136.4C233.92 139.34 233.45 141.94 232.52 144.12C231.59 146.3 230.31 148.15 228.72 149.62C227.12 151.09 225.25 152.21 223.16 152.95C221.04 153.69 218.78 154.07 216.42 154.07H200.58V118.79H216.42C218.77 118.78 221.03 119.16 223.15 119.9Z" fill="#802D2D"/>
<path d="M305.03 138.16C304.1 137.4 303.04 136.78 301.89 136.32C300.78 135.87 299.63 135.51 298.48 135.24C298.13 135.16 297.79 135.09 297.45 135.02C297.59 134.98 297.73 134.93 297.87 134.88C299.36 134.37 300.63 133.69 301.64 132.87C302.67 132.04 303.45 131.07 303.96 129.98C304.47 128.9 304.72 127.75 304.72 126.57C304.72 125.23 304.37 123.94 303.69 122.74C303 121.53 301.86 120.48 300.28 119.59C298.75 118.74 296.7 118.06 294.2 117.57C291.72 117.09 288.61 116.85 284.95 116.85H272.9C271.17 116.85 269.46 116.87 267.79 116.9C264.49 116.97 261.12 116.97 257.46 116.9C255.64 116.86 253.86 116.85 252.13 116.85H251.45V118.78H258.36V154.06H251.45V155.99H252.13C254.08 155.99 255.86 155.97 257.49 155.94C259.11 155.9 260.86 155.89 262.76 155.89C264.62 155.89 266.32 155.91 267.84 155.94C269.37 155.97 271.06 155.99 272.9 155.99H287.52C288.61 155.99 289.86 155.96 291.3 155.91C292.73 155.86 294.23 155.71 295.75 155.48C297.27 155.25 298.77 154.9 300.22 154.46C301.7 154 303.05 153.35 304.21 152.53C305.4 151.69 306.37 150.63 307.1 149.38C307.84 148.1 308.22 146.57 308.22 144.81C308.22 143.34 307.92 142.04 307.33 140.94C306.75 139.87 305.98 138.93 305.03 138.16ZM293.69 129.81C293.24 130.78 292.66 131.6 291.98 132.26C291.29 132.91 290.51 133.41 289.64 133.75C288.77 134.09 287.88 134.26 287 134.26H267.55V118.79H284.95C288.29 118.79 290.73 119.43 292.2 120.7C293.64 121.94 294.37 123.89 294.37 126.47C294.35 127.73 294.13 128.85 293.69 129.81ZM267.54 136.18H287.53C289.2 136.18 290.71 136.42 292.02 136.9C293.31 137.37 294.4 138.02 295.24 138.81C296.08 139.6 296.74 140.53 297.19 141.58C297.64 142.63 297.87 143.73 297.87 144.86C297.87 146.13 297.64 147.35 297.19 148.47C296.74 149.58 296.07 150.56 295.2 151.38C294.32 152.21 293.22 152.87 291.95 153.34C290.66 153.82 289.18 154.06 287.55 154.06H267.56V136.18H267.54Z" fill="#802D2D"/>
<path d="M364.87 143.29C364.17 145.02 363.35 146.57 362.41 147.91C361.49 149.22 360.38 150.35 359.12 151.24C357.86 152.14 356.4 152.84 354.79 153.32C353.17 153.81 351.31 154.05 349.26 154.05H329.76V136.64H339.55C343.21 136.64 346.04 137.26 347.96 138.48C349.8 139.66 350.71 141.6 350.75 144.44L350.76 145.11H352.7V126.36H350.76V127.04C350.76 128.65 350.52 129.96 350.04 130.95C349.57 131.93 348.9 132.68 348 133.25C347.07 133.83 345.91 134.23 344.53 134.44C343.1 134.66 341.43 134.77 339.56 134.77H329.77V118.78H348.63C351.94 118.78 354.68 119.64 356.76 121.34C358.87 123.06 360.61 125.7 361.92 129.18L362.08 129.62H364.04L360.08 116.18H358.23L358.27 116.55C357.99 116.62 357.4 116.71 356.18 116.75C354.33 116.82 351.79 116.86 348.62 116.86H336.05C335.43 116.86 334.65 116.87 333.69 116.89C331.78 116.92 329.68 116.91 327.7 116.94C326.71 116.96 325.9 116.97 325.26 116.97C324.58 116.97 323.79 116.96 322.9 116.94C321.1 116.91 319.14 116.92 317.34 116.89C316.43 116.87 315.66 116.86 315.01 116.86H314.33V118.79H320.64V154.07H314.33V156H315.01C315.63 156 316.39 155.99 317.29 155.97C319.08 155.93 321.1 155.95 322.9 155.92C323.79 155.9 324.56 155.89 325.21 155.89C325.86 155.89 326.66 155.9 327.63 155.92C329.57 155.95 331.69 155.93 333.57 155.97C334.51 155.99 335.3 156 335.96 156H349.29C350.87 156 352.37 156.01 353.79 156.03C355.2 156.05 356.43 156.08 357.49 156.13C358.52 156.18 359.32 156.27 359.87 156.38C359.97 156.4 360.06 156.42 360.12 156.44L360.04 156.89H361.9L367.1 142.87H365.08L364.87 143.29Z" fill="#802D2D"/>
<path d="M435.4 148.75C435.4 149.65 435.22 150.46 434.86 151.14C434.49 151.85 434.02 152.44 433.46 152.91C432.9 153.38 432.27 153.74 431.59 153.97C429.68 154.64 428.02 154.35 427.01 153.59C426.32 153.07 425.72 152.38 425.25 151.54C424.76 150.66 424.34 149.65 424.01 148.53C423.67 147.36 423.32 146.17 422.96 144.98C422.54 143.6 421.93 142.41 421.14 141.42C420.36 140.44 419.45 139.61 418.44 138.96C417.46 138.33 416.4 137.83 415.3 137.48C415.83 137.36 416.35 137.23 416.86 137.08C418.41 136.62 419.8 135.98 420.99 135.18C422.2 134.36 423.18 133.31 423.9 132.07C424.62 130.81 424.99 129.3 424.99 127.58C424.99 125.97 424.66 124.54 424.02 123.34C423.38 122.15 422.49 121.14 421.36 120.35C420.27 119.58 418.97 118.95 417.51 118.47C416.08 118.01 414.53 117.64 412.9 117.39C411.27 117.14 409.57 116.98 407.83 116.91C406.09 116.84 404.36 116.8 402.68 116.8H371.9V118.73H378.81V154.07H371.9V156H372.58C374.24 156 376.02 155.98 377.94 155.95C381.66 155.88 384.81 155.88 388.73 155.95C390.66 155.98 392.49 156 394.22 156H394.9V154.07H387.99V138.44H403.77C405.26 138.44 406.52 138.66 407.52 139.09C408.52 139.52 409.37 140.11 410.04 140.85C410.73 141.6 411.29 142.47 411.73 143.45C412.18 144.46 412.57 145.56 412.89 146.73C413.33 148.23 413.8 149.58 414.29 150.74C414.81 151.98 415.53 153.05 416.44 153.93C417.35 154.82 418.54 155.52 419.98 156.03C421.39 156.52 423.21 156.81 425.39 156.88C425.56 156.89 425.74 156.89 425.91 156.89C426.99 156.89 428.12 156.8 429.29 156.61C430.68 156.39 431.98 155.97 433.14 155.36C434.32 154.74 435.32 153.89 436.11 152.83C436.93 151.73 437.35 150.36 437.35 148.74V148.06H435.41V148.75H435.4ZM387.97 136.51V118.73H402.67C404.52 118.73 406.23 118.88 407.74 119.19C409.21 119.49 410.47 119.98 411.49 120.66C412.48 121.33 413.26 122.23 413.8 123.34C414.35 124.47 414.62 125.89 414.62 127.57C414.62 129.28 414.34 130.72 413.8 131.85C413.26 132.96 412.48 133.88 411.49 134.56C410.47 135.26 409.21 135.76 407.74 136.06C406.22 136.37 404.52 136.52 402.67 136.52H387.97V136.51Z" fill="#802D2D"/>
<path d="M501.87 148.75C501.87 149.65 501.69 150.46 501.33 151.14C500.96 151.85 500.49 152.44 499.93 152.91C499.36 153.38 498.74 153.74 498.06 153.97C496.15 154.64 494.49 154.35 493.48 153.59C492.79 153.07 492.19 152.38 491.72 151.54C491.23 150.66 490.81 149.65 490.48 148.53C490.14 147.36 489.79 146.17 489.43 144.98C489.01 143.61 488.4 142.41 487.61 141.42C486.83 140.44 485.92 139.61 484.91 138.96C483.93 138.33 482.87 137.83 481.77 137.48C482.3 137.36 482.82 137.23 483.33 137.08C484.88 136.62 486.27 135.98 487.46 135.18C488.67 134.36 489.65 133.31 490.37 132.07C491.09 130.82 491.46 129.31 491.46 127.58C491.46 125.97 491.13 124.54 490.49 123.34C489.85 122.15 488.96 121.14 487.83 120.35C486.74 119.58 485.44 118.95 483.98 118.47C482.55 118.01 481 117.64 479.37 117.39C477.74 117.14 476.04 116.98 474.3 116.91C472.56 116.84 470.83 116.8 469.15 116.8H438.37V118.73H445.28V154.07H438.37V156H439.05C440.71 156 442.49 155.98 444.41 155.95C448.13 155.88 451.28 155.88 455.2 155.95C457.13 155.98 458.96 156 460.69 156H461.37V154.07H454.46V138.44H470.24C471.72 138.44 472.99 138.66 473.99 139.09C474.99 139.52 475.84 140.11 476.51 140.85C477.2 141.6 477.76 142.47 478.2 143.45C478.65 144.47 479.04 145.57 479.36 146.73C479.8 148.22 480.27 149.57 480.76 150.74C481.28 151.98 482 153.05 482.91 153.93C483.82 154.82 485.01 155.52 486.45 156.03C487.86 156.52 489.68 156.81 491.86 156.88C492.03 156.89 492.21 156.89 492.38 156.89C493.45 156.89 494.59 156.8 495.76 156.61C497.15 156.39 498.45 155.97 499.61 155.36C500.79 154.73 501.79 153.88 502.59 152.83C503.41 151.73 503.83 150.36 503.83 148.74V148.06H501.89V148.75H501.87ZM454.44 136.51V118.73H469.14C470.99 118.73 472.7 118.88 474.21 119.19C475.68 119.49 476.94 119.98 477.96 120.66C478.96 121.33 479.72 122.21 480.27 123.34C480.82 124.47 481.09 125.89 481.09 127.57C481.09 129.28 480.81 130.72 480.27 131.85C479.73 132.97 478.95 133.88 477.96 134.56C476.94 135.26 475.68 135.76 474.22 136.06C472.7 136.37 471 136.52 469.15 136.52H454.44V136.51Z" fill="#802D2D"/>
<path d="M560.55 116.85C559.25 116.85 558.09 116.87 557.07 116.9C555.12 116.97 552.4 116.97 549.83 116.9C548.57 116.86 547.28 116.85 545.98 116.85H545.3V118.78H551.27L533.31 137.96L516.54 118.78H522.69V116.85H522.01C521.18 116.85 520.26 116.86 519.25 116.88C517.24 116.92 515.11 116.9 513.1 116.93C512.1 116.95 511.18 116.96 510.36 116.96C508.67 116.96 506.81 116.94 504.76 116.91C502.71 116.87 500.83 116.86 499.14 116.86H498.46V118.79H505.73L525.33 141.28V154.07H518.42V156H519.1C520.79 156 522.6 155.98 524.51 155.95C528.31 155.88 531.47 155.88 535.28 155.95C537.19 155.98 539.01 156 540.74 156H541.42V154.07H534.51V139.56L553.93 118.79H561.22V116.86H560.55V116.85Z" fill="#802D2D"/>
<path d="M283.51 62.5098C284.02 62.4698 284.69 62.3598 285.42 62.1998C288.36 61.5398 290.41 60.2098 291.52 58.2398C292.47 56.4298 292.96 53.9698 292.96 50.9398V44.1998C292.29 42.5298 291.3 40.9798 289.99 39.5798C287.82 37.4298 285.3 36.0098 282.52 35.3798C282.28 35.3098 281.8 35.1498 281.04 34.9198C280.23 34.6698 279.5 34.3898 278.87 34.0798C278.42 33.8198 277.85 33.4298 277.85 32.8198C277.85 32.5698 277.96 32.3198 278.14 32.1398C278.37 31.9098 278.67 31.7198 279.07 31.5498L280.64 30.9898C283.16 30.0798 285.25 28.8098 286.84 27.2098C289.06 24.9398 290.14 22.2798 290.14 19.0798C290.14 14.5698 288.14 11.1498 284.02 8.62978C282.62 7.80978 280.94 7.08977 279.04 6.50977C277.56 7.15977 276.14 8.11977 274.81 9.38977C275.49 9.90977 276.11 10.5098 276.67 11.1798C278.56 13.4698 279.51 16.5198 279.51 20.2498C279.51 23.7298 278.34 26.5998 276.02 28.7898C273.73 30.9798 270.77 32.1498 267.22 32.2598L266.39 32.2498C266.36 33.0698 266.34 33.9098 266.34 34.7698L267.7 34.8098C270.04 34.8698 272.14 35.2798 273.97 36.0298C275.77 36.7698 277.33 37.8398 278.62 39.2098C279.88 40.5698 280.84 42.1998 281.46 44.0298C282.08 45.8498 282.4 47.8398 282.4 49.9598C282.4 54.4298 281.06 58.0898 278.43 60.8198C278.15 61.0998 277.86 61.3698 277.56 61.6298C279.01 62.2398 280.55 62.5298 282.24 62.5298C282.6 62.5498 283.02 62.5398 283.51 62.5098Z" fill="#C8B9AB"/>
<path d="M306.95 55.3199C306.26 54.2699 305.9 52.7499 305.9 50.7599V38.0899C305.9 36.9999 306.01 35.8899 306.22 34.7399C306.43 33.5999 307.01 32.5099 307.99 31.4899L309.25 30.1299L310.25 29.1299H290.01C291.54 29.9199 292.65 31.0899 293.32 32.6599C294 34.2299 294.34 36.3999 294.34 39.1699V50.8399C294.34 54.0499 293.82 56.5999 292.8 58.5399C291.59 60.6999 289.4 62.1599 286.19 62.8799C285.34 63.0599 284.66 63.1599 284.16 63.1999C283.65 63.2299 283.21 63.2399 282.85 63.2399C280.63 63.2399 278.63 62.7499 276.81 61.7699C274.68 60.6399 272.84 58.8299 271.27 56.3599C268.19 51.5199 266.62 44.4799 266.57 35.2599V34.7399C266.57 33.5799 266.6 32.4499 266.65 31.3499C267.05 22.2999 269.12 15.3999 272.89 10.6899C273.34 10.1099 273.81 9.56988 274.29 9.07988C275.91 7.38988 277.68 6.12987 279.6 5.33987C281.29 4.61987 283.12 4.26988 285.07 4.26988C286.75 4.26988 288.39 4.61989 289.99 5.31989C291.59 6.00989 293.06 6.99988 294.41 8.29988C295.77 9.59988 296.97 11.1699 298.03 12.9999C299.08 14.8399 299.91 16.8699 300.5 19.0999H303.4V6.70988C300.34 4.77988 296.96 3.23987 293.29 2.08987C289.62 0.949874 286.03 0.379883 282.54 0.379883C277.47 0.379883 272.91 1.39987 268.85 3.42987H268.84C265.69 5.02987 262.85 7.22988 260.32 10.0499C254.54 16.4999 251.66 24.6699 251.66 34.5599C251.66 44.0399 254.7 51.8199 260.77 57.9099C261.25 58.3899 261.73 58.8399 262.22 59.2799C264.54 61.3299 267.08 62.9799 269.83 64.1999C273.09 65.6399 276.65 66.4999 280.51 66.7699C281.41 66.8399 282.33 66.8699 283.26 66.8699C287.77 66.8699 292.36 66.0799 297.03 64.5099C301.69 62.9399 306.1 60.6799 310.26 57.7299C308.74 57.1899 307.64 56.3799 306.95 55.3199Z" fill="#C8B9AB"/>
<path d="M142.01 51.8699V57.2399C142.01 59.3999 139.91 60.9499 137.57 60.9499C135.23 60.9499 133.31 59.3399 133.21 57.0999H134.51C134.55 58.7099 135.98 59.9799 137.62 59.9799C139.22 59.9799 140.69 58.7099 140.73 57.1399V52.9299H136.01L136.05 51.8699H142.01Z" fill="#802D2D"/>
<path d="M144.58 60.8199V51.8398H151.12V52.8499H145.85V56.0898H150.67V56.8398H145.85V59.9298H151.12V60.8298H144.58V60.8199Z" fill="#802D2D"/>
<path d="M151.95 51.8899H153.35L156.73 59.2599L159.5 51.8899H160.87L163.57 59.2499L166.68 51.8899H168.04L164.31 60.8199H162.88L160.18 53.3899L157.39 60.8199H156.03L151.95 51.8899Z" fill="#802D2D"/>
<path d="M169.51 60.8199V51.8398H176.05V52.8499H170.78V56.0898H175.6V56.8398H170.78V59.9298H176.05V60.8298H169.51V60.8199Z" fill="#802D2D"/>
<path d="M184.77 59.7899V60.8299H178.21V51.9099H179.5V59.7899H184.77Z" fill="#802D2D"/>
<path d="M186.56 60.8198V51.8198H192.22C193.9 51.8198 195.28 52.5198 195.28 54.2598C195.28 55.9498 194.07 56.8698 192.66 56.8998H191.67L195.24 60.8198H193.73L190.25 56.8998H187.84V60.8198H186.56ZM187.84 56.1298H192.21C193.2 56.1298 194.03 55.5598 194.03 54.4898C194.03 53.3398 193.23 52.8498 192.21 52.8498H187.84V56.1298Z" fill="#802D2D"/>
<path d="M196.05 51.8899H197.45L200.62 57.0899L203.59 51.8899H204.98L201.29 58.1199V60.8199H200.01V58.1299L196.05 51.8899Z" fill="#802D2D"/>
<path d="M351.25 51.9998H355.31C358.34 51.9998 360.1 53.4698 360.1 56.2598C360.1 58.9498 358.21 60.9698 355.05 60.9698H351.24V51.9998H351.25ZM352.67 52.8997V60.0698H354.65C357.23 60.0698 358.76 58.6598 358.76 56.2898C358.76 53.9298 357.36 52.8997 354.82 52.8997H352.67Z" fill="#802D2D"/>
<path d="M363.41 60.9698H362.01V52.0498H363.41V60.9698Z" fill="#802D2D"/>
<path d="M368.79 52.0999H370.72L374.63 60.9698H373.05L372.11 58.8698L367.37 58.8598L366.44 60.9799H364.87L368.79 52.0999ZM367.63 58.0699H371.85L369.76 53.1999L367.63 58.0699Z" fill="#802D2D"/>
<path d="M376.11 60.9698V52.0398H377.53L382.15 59.4398L386.77 52.0398H388.17V60.9698H386.77V54.0098L382.4 60.9698H381.9L377.53 54.0098V60.9698H376.11Z" fill="#802D2D"/>
<path d="M390.11 56.4099C390.11 53.7499 392.59 51.5999 395.77 51.5999C398.82 51.5999 401.35 53.5799 401.35 56.3499C401.35 59.0899 398.87 61.0999 395.74 61.0999C392.63 61.1099 390.11 59.0999 390.11 56.4099ZM395.71 60.1299C397.99 60.1299 399.93 58.7198 399.93 56.3598C399.93 54.0498 398.09 52.6198 395.82 52.6198C393.41 52.6098 391.53 54.1898 391.53 56.4398C391.54 58.7098 393.44 60.1299 395.71 60.1299Z" fill="#802D2D"/>
<path d="M403.28 52.0198H404.67L409.55 58.9998V52.0198H410.92V60.9798H409.7L404.68 53.9198V60.9798H403.31L403.28 52.0198Z" fill="#802D2D"/>
<path d="M413.75 51.9998H417.81C420.84 51.9998 422.6 53.4698 422.6 56.2598C422.6 58.9498 420.71 60.9698 417.55 60.9698H413.74V51.9998H413.75ZM415.16 52.8997V60.0698H417.14C419.72 60.0698 421.25 58.6598 421.25 56.2898C421.25 53.9298 419.85 52.8997 417.31 52.8997H415.16Z" fill="#802D2D"/>
<path d="M425.44 58.1899C425.43 59.7999 427.05 60.1999 428.97 60.1999C430.72 60.1999 432.37 59.7199 432.37 58.5199C432.37 56.0999 424.1 58.2299 424.1 54.4699C424.1 52.6799 426.23 51.8799 428.91 51.8799C431.59 51.8799 433.74 52.5499 433.72 54.8999H432.29C432.29 53.2299 430.8 52.8199 428.91 52.8199C427.28 52.8199 425.6 53.2299 425.6 54.5399C425.6 57.1999 433.83 55.2399 433.83 58.5399C433.83 60.3999 431.28 61.1799 428.97 61.1799C425.21 61.1799 423.9 59.8099 423.9 58.1999H425.44V58.1899Z" fill="#802D2D"/>
</svg>
