<svg width="28" height="20" viewBox="0 0 28 20" fill="none" xmlns="http://www.w3.org/2000/svg">
<path d="M5.00744 0.5C6.25821 0.499845 7.46222 0.881952 8.37527 1.56881C9.28831 2.25567 9.84201 3.19586 9.92406 4.19867L9.93391 4.52483C9.9142 10.1536 7.49038 14.997 2.63288 19.1279C2.50082 19.2451 2.34099 19.3398 2.16275 19.4067C1.98451 19.4736 1.79145 19.5112 1.59489 19.5173C1.39833 19.5234 1.20223 19.498 1.01807 19.4424C0.833911 19.3869 0.665405 19.3024 0.522432 19.1938C0.379459 19.0853 0.264895 18.9549 0.185454 18.8103C0.106013 18.6657 0.0632951 18.5098 0.0598032 18.3518C0.0563113 18.1937 0.0921154 18.0368 0.165118 17.89C0.238121 17.7432 0.346853 17.6096 0.48494 17.4971C3.7167 14.7468 5.7267 11.6799 6.54844 8.22033C5.87156 8.39832 5.15471 8.45626 4.44727 8.39018C3.73983 8.32409 3.05864 8.13555 2.45063 7.83755C1.84263 7.53954 1.32227 7.13916 0.925415 6.66399C0.528562 6.18882 0.264652 5.65017 0.151872 5.08514C0.0390922 4.52012 0.0801248 3.94217 0.272141 3.39112C0.464158 2.84007 0.802593 2.32902 1.26412 1.8932C1.72565 1.45737 2.2993 1.10713 2.94554 0.866611C3.59178 0.626092 4.29524 0.501016 5.00744 0.5ZM22.7427 0.5C23.9935 0.499845 25.1975 0.881952 26.1106 1.56881C27.0236 2.25567 27.5773 3.19586 27.6594 4.19867L27.6692 4.52483C27.6495 10.1615 25.2296 14.997 20.3682 19.1279C20.2361 19.2451 20.0763 19.3398 19.898 19.4067C19.7198 19.4736 19.5267 19.5112 19.3302 19.5173C19.1336 19.5234 18.9375 19.498 18.7534 19.4424C18.5692 19.3869 18.4007 19.3024 18.2577 19.1938C18.1148 19.0853 18.0002 18.9549 17.9207 18.8103C17.8413 18.6657 17.7986 18.5098 17.7951 18.3518C17.7916 18.1937 17.8274 18.0368 17.9004 17.89C17.9734 17.7432 18.0821 17.6096 18.2202 17.4971C21.4579 14.7452 23.4659 11.6831 24.2857 8.22033C23.6089 8.39829 22.8921 8.45624 22.1848 8.3902C21.4774 8.32415 20.7963 8.13567 20.1883 7.83775C19.5804 7.53983 19.06 7.13954 18.6631 6.66448C18.2662 6.18941 18.0022 5.65086 17.8893 5.08592C17.7764 4.52099 17.8173 3.9431 18.0091 3.39207C18.2009 2.84105 18.5391 2.32999 19.0004 1.8941C19.4618 1.45821 20.0352 1.10787 20.6812 0.867193C21.3273 0.62652 22.0306 0.501246 22.7427 0.5Z" fill="#C9B9AC"/>
</svg>
