<svg width="25" height="24" viewBox="0 0 25 24" fill="none" xmlns="http://www.w3.org/2000/svg">
<path d="M19.85 21L13.55 14.7C13.05 15.1 12.475 15.4167 11.825 15.65C11.175 15.8833 10.4833 16 9.75 16C7.93333 16 6.39583 15.3708 5.1375 14.1125C3.87917 12.8542 3.25 11.3167 3.25 9.5C3.25 7.68333 3.87917 6.14583 5.1375 4.8875C6.39583 3.62917 7.93333 3 9.75 3C11.5667 3 13.1042 3.62917 14.3625 4.8875C15.6208 6.14583 16.25 7.68333 16.25 9.5C16.25 10.2333 16.1333 10.925 15.9 11.575C15.6667 12.225 15.35 12.8 14.95 13.3L21.25 19.6L19.85 21ZM9.75 14C11 14 12.0625 13.5625 12.9375 12.6875C13.8125 11.8125 14.25 10.75 14.25 9.5C14.25 8.25 13.8125 7.1875 12.9375 6.3125C12.0625 5.4375 11 5 9.75 5C8.5 5 7.4375 5.4375 6.5625 6.3125C5.6875 7.1875 5.25 8.25 5.25 9.5C5.25 10.75 5.6875 11.8125 6.5625 12.6875C7.4375 13.5625 8.5 14 9.75 14Z" fill="#272727"/>
</svg>
