<svg width="25" height="24" viewBox="0 0 25 24" fill="none" xmlns="http://www.w3.org/2000/svg">
<mask id="mask0_457_2019" style="mask-type:alpha" maskUnits="userSpaceOnUse" x="0" y="0" width="25" height="24">
<rect x="0.25" width="24" height="24" fill="#D9D9D9"/>
</mask>
<g mask="url(#mask0_457_2019)">
<path d="M7.25 22C6.7 22 6.22917 21.8042 5.8375 21.4125C5.44583 21.0208 5.25 20.55 5.25 20C5.25 19.45 5.44583 18.9792 5.8375 18.5875C6.22917 18.1958 6.7 18 7.25 18C7.8 18 8.27083 18.1958 8.6625 18.5875C9.05417 18.9792 9.25 19.45 9.25 20C9.25 20.55 9.05417 21.0208 8.6625 21.4125C8.27083 21.8042 7.8 22 7.25 22ZM17.25 22C16.7 22 16.2292 21.8042 15.8375 21.4125C15.4458 21.0208 15.25 20.55 15.25 20C15.25 19.45 15.4458 18.9792 15.8375 18.5875C16.2292 18.1958 16.7 18 17.25 18C17.8 18 18.2708 18.1958 18.6625 18.5875C19.0542 18.9792 19.25 19.45 19.25 20C19.25 20.55 19.0542 21.0208 18.6625 21.4125C18.2708 21.8042 17.8 22 17.25 22ZM6.4 6L8.8 11H15.8L18.55 6H6.4ZM5.45 4H20.2C20.5833 4 20.875 4.17083 21.075 4.5125C21.275 4.85417 21.2833 5.2 21.1 5.55L17.55 11.95C17.3667 12.2833 17.1208 12.5417 16.8125 12.725C16.5042 12.9083 16.1667 13 15.8 13H8.35L7.25 15H19.25V17H7.25C6.5 17 5.93333 16.6708 5.55 16.0125C5.16667 15.3542 5.15 14.7 5.5 14.05L6.85 11.6L3.25 4H1.25V2H4.5L5.45 4Z" fill="#272727"/>
</g>
</svg>
