<svg width="19" height="18" viewBox="0 0 19 18" fill="none" xmlns="http://www.w3.org/2000/svg">
<path d="M9.50022 14.4623L5.33772 17.6404C5.13147 17.8092 4.90647 17.8891 4.66272 17.8801C4.41897 17.8711 4.20335 17.8006 4.01585 17.6686C3.82835 17.5373 3.68322 17.3592 3.58047 17.1342C3.47772 16.9092 3.47285 16.6654 3.56585 16.4029L5.16897 11.1998L1.09085 8.30294C0.865848 8.15294 0.725223 7.95606 0.668973 7.71231C0.612723 7.46856 0.622098 7.24356 0.697098 7.03731C0.772098 6.83106 0.903348 6.64806 1.09085 6.48831C1.27835 6.32856 1.50335 6.24906 1.76585 6.24981H6.80022L8.43147 0.849811C8.52522 0.587311 8.67072 0.385561 8.86797 0.244561C9.06522 0.103561 9.27597 0.0334356 9.50022 0.0341856C9.72522 0.0341856 9.93635 0.104686 10.1336 0.245686C10.3308 0.386686 10.476 0.588061 10.569 0.849811L12.2002 6.24981H17.2346C17.4971 6.24981 17.7221 6.32969 17.9096 6.48944C18.0971 6.64919 18.2283 6.83181 18.3033 7.03731C18.3783 7.24356 18.3877 7.46856 18.3315 7.71231C18.2752 7.95606 18.1346 8.15294 17.9096 8.30294L13.8315 11.1998L15.4346 16.4029C15.5283 16.6654 15.5238 16.9092 15.4211 17.1342C15.3183 17.3592 15.1728 17.5373 14.9846 17.6686C14.7971 17.7998 14.5815 17.8703 14.3377 17.8801C14.094 17.8898 13.869 17.8099 13.6627 17.6404L9.50022 14.4623Z" fill="#FFC812"/>
</svg>
