<svg width="57" height="58" viewBox="0 0 57 58" fill="none" xmlns="http://www.w3.org/2000/svg">
<circle cx="28.5" cy="28.7637" r="28" stroke="#272727"/>
<path d="M28.3948 16.7784C21.7573 17.0909 16.5211 22.5784 16.5411 29.1746C16.5444 31.1163 17.0092 33.0293 17.8973 34.7559L16.5748 41.1321C16.5587 41.2119 16.5629 41.2944 16.5871 41.372C16.6113 41.4497 16.6547 41.52 16.7133 41.5764C16.7718 41.6329 16.8437 41.6736 16.9222 41.6949C17.0006 41.7163 17.0833 41.7174 17.1623 41.6984L23.4548 40.2184C25.1214 41.042 26.951 41.4827 28.8098 41.5084C35.5936 41.6121 41.2486 36.2646 41.4598 29.5334C41.6873 22.3146 35.6886 16.4321 28.3948 16.7771V16.7784ZM35.9036 35.9871C34.9967 36.8908 33.9204 37.6066 32.7363 38.0935C31.5523 38.5804 30.2838 38.8289 29.0036 38.8246C27.4973 38.8292 26.0107 38.4835 24.6611 37.8146L23.7848 37.3809L19.9261 38.2884L20.7386 34.3746L20.3061 33.5346C19.6049 32.1756 19.2414 30.6676 19.2461 29.1384C19.2461 26.5509 20.2611 24.1171 22.1036 22.2884C23.9401 20.4705 26.4195 19.4504 29.0036 19.4496C31.6111 19.4496 34.0611 20.4571 35.9036 22.2871C36.8113 23.1817 37.5317 24.2482 38.0225 25.4243C38.5134 26.6005 38.7649 27.8627 38.7623 29.1371C38.7623 31.7021 37.7311 34.1746 35.9036 35.9884V35.9871Z" fill="#272727"/>
<path d="M35.0525 31.8194L32.6387 31.1319C32.483 31.0872 32.3181 31.0852 32.1613 31.1261C32.0045 31.167 31.8616 31.2493 31.7475 31.3644L31.1575 31.9619C31.0354 32.0856 30.8796 32.1705 30.7095 32.2061C30.5394 32.2416 30.3626 32.2263 30.2012 32.1619C29.06 31.7032 26.6575 29.5832 26.0437 28.5219C25.9577 28.372 25.9184 28.1999 25.9309 28.0275C25.9433 27.8551 26.007 27.6904 26.1137 27.5544L26.6287 26.8919C26.7279 26.765 26.7906 26.6135 26.8102 26.4536C26.8298 26.2937 26.8055 26.1316 26.74 25.9844L25.725 23.7044C25.6676 23.577 25.5814 23.4646 25.4732 23.3761C25.365 23.2876 25.2378 23.2254 25.1015 23.1944C24.9652 23.1634 24.8236 23.1644 24.6878 23.1974C24.552 23.2304 24.4256 23.2944 24.3187 23.3844C23.645 23.9507 22.845 24.8094 22.7487 25.7632C22.5775 27.4419 23.3025 29.5582 26.045 32.1007C29.2137 35.0369 31.7525 35.4257 33.4037 35.0269C34.3412 34.8019 35.0912 33.8982 35.5625 33.1594C35.6379 33.0421 35.6846 32.9087 35.6991 32.77C35.7135 32.6313 35.6952 32.4911 35.6456 32.3608C35.5959 32.2304 35.5164 32.1135 35.4134 32.0195C35.3104 31.9255 35.1868 31.857 35.0525 31.8194Z" fill="#272727"/>
</svg>
